<svg width="32" height="32" viewBox="0 0 32 32" fill="none" xmlns="http://www.w3.org/2000/svg">
<path d="M18.6665 4.35863C18.6665 3.42396 17.9092 2.66663 16.9745 2.66663H15.0265C14.0905 2.66663 13.3332 3.42396 13.3332 4.35863C13.3332 5.12929 12.8052 5.79063 12.0865 6.07329C11.9732 6.11863 11.8598 6.16663 11.7492 6.21463C11.0412 6.52129 10.1998 6.42796 9.65317 5.88263C9.33589 5.56557 8.90571 5.38748 8.45717 5.38748C8.00863 5.38748 7.57845 5.56557 7.26117 5.88263L5.8825 7.26129C5.56545 7.57857 5.38735 8.00875 5.38735 8.45729C5.38735 8.90583 5.56545 9.33602 5.8825 9.65329V9.65329C6.42917 10.2 6.5225 11.04 6.21317 11.7493C6.16457 11.8609 6.1179 11.9734 6.07317 12.0866C5.7905 12.8053 5.12917 13.3333 4.3585 13.3333C3.42384 13.3333 2.6665 14.0906 2.6665 15.0253V16.9746C2.6665 17.9093 3.42384 18.6666 4.3585 18.6666C5.12917 18.6666 5.7905 19.1946 6.07317 19.9133C6.1185 20.0266 6.1665 20.14 6.21317 20.2506C6.52117 20.9586 6.42784 21.8 5.8825 22.3466C5.56545 22.6639 5.38735 23.0941 5.38735 23.5426C5.38735 23.9912 5.56545 24.4214 5.8825 24.7386L7.26117 26.1173C7.57845 26.4343 8.00863 26.6124 8.45717 26.6124C8.90571 26.6124 9.33589 26.4343 9.65317 26.1173C10.1998 25.5706 11.0398 25.4773 11.7492 25.7853C11.8598 25.8346 11.9732 25.8813 12.0865 25.9266C12.8052 26.2093 13.3332 26.8706 13.3332 27.6413C13.3332 28.576 14.0905 29.3333 15.0252 29.3333H16.9745C17.9092 29.3333 18.6665 28.576 18.6665 27.6413C18.6665 26.8706 19.1945 26.2093 19.9132 25.9253C20.0265 25.8813 20.1398 25.8346 20.2505 25.7866C20.9585 25.4773 21.7998 25.572 22.3452 26.1173C22.5023 26.2745 22.6889 26.3992 22.8942 26.4842C23.0995 26.5693 23.3196 26.6131 23.5418 26.6131C23.7641 26.6131 23.9842 26.5693 24.1895 26.4842C24.3948 26.3992 24.5814 26.2745 24.7385 26.1173L26.1172 24.7386C26.4342 24.4214 26.6123 23.9912 26.6123 23.5426C26.6123 23.0941 26.4342 22.6639 26.1172 22.3466V22.3466C25.5705 21.8 25.4772 20.96 25.7852 20.2506C25.8345 20.14 25.8812 20.0266 25.9265 19.9133C26.2092 19.1946 26.8705 18.6666 27.6412 18.6666C28.5758 18.6666 29.3332 17.9093 29.3332 16.9746V15.0266C29.3332 14.092 28.5758 13.3346 27.6412 13.3346C26.8705 13.3346 26.2092 12.8066 25.9252 12.088C25.8805 11.9747 25.8338 11.8622 25.7852 11.7506C25.4785 11.0426 25.5718 10.2013 26.1172 9.65463C26.4342 9.33735 26.6123 8.90716 26.6123 8.45863C26.6123 8.01009 26.4342 7.5799 26.1172 7.26263L24.7385 5.88396C24.4212 5.56691 23.991 5.38881 23.5425 5.38881C23.094 5.38881 22.6638 5.56691 22.3465 5.88396V5.88396C21.7998 6.43063 20.9598 6.52396 20.2505 6.21596C20.1389 6.1669 20.0264 6.11978 19.9132 6.07463C19.1945 5.79063 18.6665 5.12929 18.6665 4.35996V4.35863Z" stroke="#474A4F" stroke-width="2"/>
<path d="M21.3332 16C21.3332 17.4144 20.7713 18.771 19.7711 19.7712C18.7709 20.7714 17.4143 21.3333 15.9998 21.3333C14.5853 21.3333 13.2288 20.7714 12.2286 19.7712C11.2284 18.771 10.6665 17.4144 10.6665 16C10.6665 14.5855 11.2284 13.2289 12.2286 12.2287C13.2288 11.2285 14.5853 10.6666 15.9998 10.6666C17.4143 10.6666 18.7709 11.2285 19.7711 12.2287C20.7713 13.2289 21.3332 14.5855 21.3332 16V16Z" stroke="#474A4F" stroke-width="2"/>
</svg>
