<svg width="32" height="32" viewBox="0 0 32 32" fill="none" xmlns="http://www.w3.org/2000/svg">
<path d="M7.99992 17.3334H2.66659C1.86659 17.3334 1.33325 17.8667 1.33325 18.6667V29.3334C1.33325 30.1334 1.86659 30.6667 2.66659 30.6667H7.99992C8.79992 30.6667 9.33325 30.1334 9.33325 29.3334V18.6667C9.33325 17.8667 8.79992 17.3334 7.99992 17.3334ZM29.3333 12H23.9999C23.1999 12 22.6666 12.5334 22.6666 13.3334V29.3334C22.6666 30.1334 23.1999 30.6667 23.9999 30.6667H29.3333C30.1333 30.6667 30.6666 30.1334 30.6666 29.3334V13.3334C30.6666 12.5334 30.1333 12 29.3333 12ZM18.6666 1.33337H13.3333C12.5333 1.33337 11.9999 1.86671 11.9999 2.66671V29.3334C11.9999 30.1334 12.5333 30.6667 13.3333 30.6667H18.6666C19.4666 30.6667 19.9999 30.1334 19.9999 29.3334V2.66671C19.9999 1.86671 19.4666 1.33337 18.6666 1.33337Z" fill="#474A4F"/>
</svg>
