<svg width="48" height="48" viewBox="0 0 48 48" fill="none" xmlns="http://www.w3.org/2000/svg">
<path d="M33.374 33.874C37.617 29.632 34.789 15.49 28.424 9.12598C25.596 6.29698 17.464 0.285978 8.62598 9.12598C-0.214022 17.964 5.79698 26.096 8.62598 28.924C14.99 35.289 29.132 38.117 33.374 33.874V33.874Z" fill="#FF9900" stroke="black" stroke-width="4" stroke-linecap="round" stroke-linejoin="round"/>
<path d="M41 41L34 34" stroke="black" stroke-width="4"/>
<path d="M40.4252 38.3032C39.4489 39.2795 39.4489 40.8624 40.4252 41.8387C41.4015 42.815 42.9844 42.815 43.9607 41.8387C44.9371 40.8624 44.9371 39.2795 43.9607 38.3032C42.9844 37.3268 41.4015 37.3268 40.4252 38.3032Z" fill="black"/>
<path d="M38.3033 40.4252C37.327 41.4015 37.327 42.9844 38.3033 43.9608C39.2796 44.9371 40.8625 44.9371 41.8388 43.9608C42.8151 42.9844 42.8151 41.4015 41.8388 40.4252C40.8625 39.4489 39.2796 39.4489 38.3033 40.4252Z" fill="black"/>
<path d="M17 20C18.1046 20 19 19.1046 19 18C19 16.8954 18.1046 16 17 16C15.8954 16 15 16.8954 15 18C15 19.1046 15.8954 20 17 20Z" fill="white"/>
<path d="M12 23C13.1046 23 14 22.1046 14 21C14 19.8954 13.1046 19 12 19C10.8954 19 10 19.8954 10 21C10 22.1046 10.8954 23 12 23Z" fill="white"/>
<path d="M17 26C18.1046 26 19 25.1046 19 24C19 22.8954 18.1046 22 17 22C15.8954 22 15 22.8954 15 24C15 25.1046 15.8954 26 17 26Z" fill="white"/>
</svg>
