<svg width="32" height="32" viewBox="0 0 32 32" fill="none" xmlns="http://www.w3.org/2000/svg">
<path d="M11.4957 28.7193C11.6108 28.8442 11.6721 29.0094 11.6661 29.179C11.6601 29.3487 11.5874 29.5092 11.4637 29.6256L10.0736 30.9254C9.94951 31.0407 9.78468 31.1021 9.61536 31.096C9.44604 31.0898 9.28607 31.0168 9.1706 30.8928L1.07524 22.1683C0.960195 22.0434 0.899091 21.8782 0.905203 21.7085C0.911315 21.5388 0.984148 21.3784 1.10788 21.2621L2.49988 19.9641C2.5613 19.907 2.63339 19.8624 2.71202 19.8331C2.79066 19.8038 2.87429 19.7903 2.95816 19.7933C3.04202 19.7964 3.12447 19.8159 3.20078 19.8508C3.27709 19.8857 3.34578 19.9353 3.40292 19.9968L11.4957 28.7193ZM21.8253 12.3033C21.9404 12.4282 22.0015 12.5935 21.9953 12.7632C21.9892 12.9329 21.9164 13.0933 21.7927 13.2096L13.0439 21.3824C12.9197 21.4977 12.7549 21.559 12.5856 21.5529C12.4163 21.5468 12.2563 21.4737 12.1408 21.3497L10.0525 19.0963C9.93747 18.9714 9.87637 18.8062 9.88248 18.6365C9.88859 18.4668 9.96143 18.3064 10.0852 18.1901L18.832 10.0173C18.8934 9.9601 18.9654 9.9156 19.044 9.8863C19.1226 9.857 19.2062 9.84348 19.29 9.84651C19.3738 9.84954 19.4562 9.86907 19.5325 9.90397C19.6087 9.93887 19.6774 9.98846 19.7344 10.0499L21.8253 12.3033V12.3033ZM14.4724 25.9373C14.7117 26.1952 14.697 26.6029 14.4397 26.8435L13.0477 28.1427C12.9863 28.1999 12.9142 28.2444 12.8356 28.2737C12.7569 28.303 12.6733 28.3165 12.5894 28.3135C12.5056 28.3105 12.4231 28.291 12.3468 28.256C12.2705 28.2211 12.2018 28.1715 12.1447 28.1101L4.0538 19.3856C3.93867 19.2608 3.87746 19.0956 3.88345 18.9259C3.88944 18.7562 3.96216 18.5957 4.0858 18.4793L5.47524 17.1808C5.59936 17.0655 5.76419 17.0041 5.93351 17.0102C6.10283 17.0164 6.2628 17.0894 6.37828 17.2134L14.4724 25.9373ZM27.9527 12.6163C28.0676 12.7413 28.1286 12.9066 28.1224 13.0763C28.1162 13.246 28.0432 13.4063 27.9194 13.5225L26.528 14.8217C26.4039 14.9372 26.239 14.9987 26.0696 14.9927C25.9002 14.9867 25.74 14.9137 25.6244 14.7897L17.5322 6.06718C17.4169 5.94245 17.3556 5.77722 17.3616 5.60747C17.3676 5.43773 17.4404 5.27724 17.5642 5.16094L18.9594 3.85854C19.0208 3.80138 19.0928 3.75688 19.1714 3.72758C19.25 3.69828 19.3336 3.68476 19.4174 3.68779C19.5012 3.69082 19.5836 3.71035 19.6598 3.74525C19.7361 3.78015 19.8047 3.82974 19.8618 3.89118L27.9527 12.6163ZM30.9248 9.8387C31.0398 9.96378 31.1008 10.1291 31.0947 10.2988C31.0886 10.4686 31.0158 10.6291 30.8922 10.7456L29.5034 12.0441C29.4421 12.1013 29.3701 12.1459 29.2915 12.1752C29.2129 12.2046 29.1294 12.2182 29.0456 12.2152C28.9617 12.2122 28.8793 12.1928 28.8031 12.1579C28.7268 12.1231 28.6581 12.0735 28.601 12.0121L20.5101 3.28574C20.3951 3.16075 20.334 2.99548 20.34 2.82574C20.346 2.65599 20.4186 2.49544 20.5421 2.37886L21.9322 1.07774C21.9934 1.02048 22.0654 0.975878 22.1439 0.946486C22.2224 0.917094 22.3059 0.903494 22.3897 0.906467C22.4735 0.909441 22.5559 0.928928 22.6321 0.963811C22.7083 0.998694 22.7769 1.04829 22.834 1.10974L30.9248 9.8387V9.8387Z" fill="#474A4F"/>
</svg>
